<svg width="50" height="54" viewBox="0 0 50 54" fill="none" xmlns="http://www.w3.org/2000/svg">
<g filter="url(#filter0_d_751_132)">
<path d="M18 0C10.2685 0 4 6.33738 4 14.1538C4 21.9703 10.2685 28.3077 18 28.3077C25.7315 28.3077 32 21.9703 32 14.1538C32 6.33738 25.7315 0 18 0ZM13.625 5.30769C15.074 5.30769 16.25 6.49662 16.25 7.96154C16.25 9.42646 15.074 10.6154 13.625 10.6154C12.176 10.6154 11 9.42646 11 7.96154C11 6.49662 12.176 5.30769 13.625 5.30769ZM35.5 14.1538C35.5 15.4631 35.3184 16.7219 35.0454 17.948C36.3369 18.4699 37.25 19.7411 37.25 21.2308C37.25 23.1858 35.6838 24.7692 33.75 24.7692C33.1917 24.7692 32.6707 24.6244 32.2017 24.3891C30.6407 26.606 28.6226 28.4709 26.2339 29.7625C28.0014 33.1081 31.4872 35.3846 35.5 35.3846C41.2995 35.3846 46 30.6325 46 24.7692C46 18.906 41.2995 14.1538 35.5 14.1538ZM12.75 31.8462C8.88425 31.8462 5.75 35.0148 5.75 38.9231C5.75 42.8313 8.88425 46 12.75 46C16.6158 46 19.75 42.8313 19.75 38.9231C19.75 35.0148 16.6158 31.8462 12.75 31.8462ZM11 35.3846C11.966 35.3846 12.75 36.1772 12.75 37.1538C12.75 38.1305 11.966 38.9231 11 38.9231C10.034 38.9231 9.25 38.1305 9.25 37.1538C9.25 36.1772 10.034 35.3846 11 35.3846Z" fill="white"/>
</g>
<defs>
<filter id="filter0_d_751_132" x="0" y="0" width="50" height="54" filterUnits="userSpaceOnUse" color-interpolation-filters="sRGB">
<feFlood flood-opacity="0" result="BackgroundImageFix"/>
<feColorMatrix in="SourceAlpha" type="matrix" values="0 0 0 0 0 0 0 0 0 0 0 0 0 0 0 0 0 0 127 0" result="hardAlpha"/>
<feOffset dy="4"/>
<feGaussianBlur stdDeviation="2"/>
<feComposite in2="hardAlpha" operator="out"/>
<feColorMatrix type="matrix" values="0 0 0 0 0 0 0 0 0 0 0 0 0 0 0 0 0 0 0.15 0"/>
<feBlend mode="normal" in2="BackgroundImageFix" result="effect1_dropShadow_751_132"/>
<feBlend mode="normal" in="SourceGraphic" in2="effect1_dropShadow_751_132" result="shape"/>
</filter>
</defs>
</svg>
