<svg width="57" height="59" viewBox="0 0 57 59" fill="none" xmlns="http://www.w3.org/2000/svg">
<g filter="url(#filter0_d_138_157)">
<path d="M24.0145 26.6679C24.6042 26.4315 25.1445 26.1636 25.6178 25.7758C25.8557 25.5809 26.0503 25.35 26.1777 25.0697C26.321 24.7543 26.3175 24.4246 26.2027 24.1064C26.0716 23.7433 25.9215 23.3863 25.7611 23.0349C25.606 22.6949 25.4335 22.3625 25.258 22.0322C24.9406 21.4344 24.6145 20.8413 24.2939 20.245C23.9004 19.513 23.4947 18.7867 23.1244 18.0431C23.0039 17.8011 22.9577 17.5154 22.9147 17.2438C22.8705 16.9654 22.8486 16.6789 22.8587 16.3975C22.8761 15.9093 22.9098 15.4205 22.9675 14.9357C23.0041 14.6292 23.0675 14.3272 23.0646 14.0157C23.063 13.8559 23.0921 13.6957 23.1068 13.5355C23.1184 13.409 23.1225 13.2943 23.0622 13.1647C23.0036 13.0386 23.0243 12.8753 23.0117 12.7283C22.9863 12.428 22.9716 12.1264 22.9352 11.8273C22.8829 11.399 22.8233 10.9713 22.7522 10.5457C22.6267 9.79564 22.465 9.05351 22.2217 8.33115C22.1354 8.07467 22.0647 7.81199 21.9636 7.56171C21.79 7.13166 21.6094 6.70375 21.4116 6.28455C21.0642 5.54804 20.6418 4.85377 20.1658 4.1932C19.804 3.69109 19.4227 3.20447 18.9838 2.76532C18.8293 2.61074 18.6891 2.44162 18.5378 2.28355C18.4644 2.20684 18.3808 2.14001 18.276 2.04567C18.4178 1.99298 18.533 1.94242 18.6527 1.90697C19.3559 1.69969 20.0207 1.41396 20.6089 0.967257C20.6499 0.936069 20.6912 0.90488 20.7342 0.876598C20.7489 0.866912 20.7696 0.866137 20.7981 0.858389C20.8262 0.905268 20.8539 0.952147 20.8827 1.00038C21.1779 0.927933 21.4635 0.856064 21.7502 0.787876C22.1121 0.701867 22.4743 0.61547 22.8376 0.535659C23.1763 0.461272 23.5154 0.387467 23.8568 0.328384C24.1421 0.278986 24.4307 0.245086 24.7188 0.21506C25.1532 0.169924 25.5898 0.145129 26.023 0.0918572C26.8441 -0.00887472 27.6682 0.0015859 28.4922 3.61811e-05C28.7242 -0.000351249 28.957 0.00216705 29.1884 0.0176643C29.4311 0.0337426 29.6722 0.06958 29.9145 0.0918572C30.1643 0.114909 30.4155 0.125757 30.6649 0.153265C31.0478 0.195495 31.4328 0.229976 31.8112 0.298939C32.5582 0.435121 33.3048 0.577114 34.0448 0.746809C34.552 0.863038 35.048 1.02808 35.548 1.17492C36.2404 1.37832 36.9139 1.63674 37.5772 1.91685C38.2229 2.18941 38.862 2.4823 39.4837 2.80542C40.2653 3.21164 41.0239 3.66048 41.7585 4.15019C42.5312 4.66528 43.2778 5.21369 43.9881 5.81072C44.333 6.10071 44.6671 6.40426 44.9979 6.71033C45.3101 6.99936 45.6252 7.28741 45.9147 7.59832C46.3886 8.10741 46.8453 8.63257 47.3043 9.15521C47.7644 9.67902 48.1744 10.2427 48.5629 10.82C48.9405 11.3814 49.2899 11.962 49.6482 12.5361C50.0512 13.1822 50.3744 13.871 50.7033 14.5558C50.8979 14.9611 51.0629 15.381 51.2324 15.7979C51.3726 16.1429 51.5083 16.4902 51.63 16.842C51.7516 17.1938 51.8546 17.5522 51.9635 17.9084C52.0442 18.1729 52.125 18.4373 52.1986 18.7038C52.2601 18.9272 52.3177 19.1521 52.3659 19.3785C52.4371 19.7123 52.5038 20.0472 52.563 20.3833C52.6289 20.7564 52.675 21.1332 52.7466 21.5051C52.8342 21.9606 52.845 22.4237 52.9093 22.8807C52.9517 23.1825 52.9546 23.4834 52.9606 23.7854C52.9732 24.4173 52.9914 25.0492 52.9908 25.6811C52.9905 26.1191 52.9757 26.5582 52.9434 26.995C52.9081 27.4689 52.8506 27.9413 52.7919 28.413C52.7501 28.7507 52.7071 29.0895 52.6353 29.4215C52.4745 30.1636 52.3058 30.9042 52.1209 31.6405C51.9656 32.2585 51.7587 32.8609 51.5473 33.4628C51.1834 34.4978 50.7375 35.4945 50.2431 36.4724C49.7739 37.4007 49.2364 38.2877 48.6535 39.1474C48.1755 39.8523 47.6583 40.528 47.1102 41.1804C46.512 41.8925 45.874 42.5676 45.2018 43.2082C44.5298 43.8489 43.8218 44.45 43.08 45.0102C42.4057 45.5196 41.7083 45.9952 40.9883 46.4373C40.2909 46.8654 39.5735 47.2586 38.837 47.6151C38.0719 47.9853 37.2877 48.3144 36.4886 48.6026C35.9324 48.8033 35.3644 48.9734 34.7958 49.1361C34.2706 49.2864 33.7394 49.4174 33.207 49.5406C32.8812 49.6159 32.5489 49.665 32.2183 49.7182C31.863 49.7754 31.5072 49.8306 31.1501 49.8744C30.755 49.9226 30.3576 49.9532 29.9621 49.998C29.1931 50.0851 28.4211 50.1049 27.6486 50.0935C27.263 50.0876 26.8778 50.0561 26.4924 50.0338C26.2035 50.0171 25.9141 50.0026 25.626 49.9761C25.3641 49.9519 25.1038 49.9119 24.8426 49.8806C24.6189 49.8536 24.3931 49.8395 24.1712 49.8017C23.6961 49.7208 23.221 49.6365 22.7495 49.5375C22.2963 49.4424 21.8429 49.3418 21.3975 49.2161C20.8647 49.0658 20.3374 48.8944 19.8129 48.7167C19.3617 48.5637 18.9159 48.3938 18.4712 48.2222C18.2069 48.1201 17.946 48.0075 17.6896 47.8867C17.229 47.6695 16.7658 47.4562 16.3171 47.2162C15.7891 46.934 15.2657 46.6409 14.7579 46.3241C14.0036 45.8538 13.2682 45.3534 12.5743 44.7957C12.2582 44.5418 11.9524 44.2752 11.6331 44.0259C11.5576 43.967 11.5318 43.8952 11.5051 43.8196C11.428 43.6013 11.3575 43.3806 11.2868 43.1602C11.1288 42.6672 10.8979 42.2087 10.6264 41.7697C10.4843 41.5398 10.3444 41.3079 10.1918 41.0849C10.1122 40.9685 10.1086 40.8703 10.1727 40.7457C10.5038 40.1014 10.8997 39.5044 11.3798 38.9583C11.7288 38.5614 12.1223 38.2255 12.5668 37.9479C12.9525 37.7069 13.3681 37.5281 13.8244 37.4768C14.0345 37.4531 14.2509 37.4547 14.4618 37.4731C14.7875 37.5016 15.1109 37.5558 15.4357 37.5959C15.6596 37.6234 15.8842 37.6438 16.1081 37.6703C16.6118 37.7298 17.1152 37.7916 17.6189 37.8514C18.0798 37.9062 18.5407 37.9713 19.0063 37.9225C19.4322 37.8778 19.842 37.7691 20.2328 37.5915C20.6782 37.3888 21.0772 37.1157 21.411 36.7602C21.8681 36.2736 22.1925 35.7097 22.3635 35.0569C22.4512 34.722 22.4876 34.3872 22.4826 34.0434C22.4764 33.6302 22.4855 33.2168 22.4781 32.8038C22.4758 32.6761 22.5136 32.5835 22.6079 32.4995C22.9133 32.2279 23.1244 31.8904 23.2605 31.5078C23.3603 31.2279 23.4205 30.9381 23.4345 30.6398C23.4374 30.5761 23.4509 30.5127 23.4573 30.449C23.4631 30.3916 23.4755 30.3328 23.4689 30.2766C23.4372 30.0089 23.4075 29.7406 23.3605 29.4754C23.3429 29.3756 23.3601 29.3041 23.4143 29.2243C23.5811 28.9789 23.7404 28.7286 23.8373 28.445C23.9436 28.1333 24.0269 27.8181 24.0164 27.483C24.0081 27.2128 24.0147 26.942 24.0147 26.6671L24.0145 26.6679ZM29.6865 29.0868C29.7284 29.1131 29.7435 29.1271 29.7611 29.1333C29.9251 29.1908 30.088 29.253 30.2546 29.3026C31.0823 29.549 31.8091 29.9825 32.4957 30.4947C33.2153 31.0317 33.8627 31.652 34.5146 32.2649C35.1775 32.8882 35.8466 33.5014 36.5766 34.0463C37.1521 34.4759 37.7616 34.8508 38.4206 35.1338C38.9712 35.3701 39.5404 35.5499 40.1433 35.6222C40.8233 35.7037 41.4926 35.6789 42.1584 35.5234C42.7982 35.3738 43.3907 35.1185 43.9378 34.752C44.4146 34.4324 44.8217 34.0432 45.1592 33.5812C45.4927 33.1248 45.7487 32.6279 45.9192 32.0882C46.0518 31.668 46.133 31.2359 46.1326 30.7971C46.1324 30.5168 46.0797 30.2351 46.0348 29.9568C45.9242 29.2716 45.6281 28.6693 45.1859 28.1391C44.7016 27.558 44.0863 27.1872 43.3423 27.0493C42.5641 26.9052 41.8286 27.0342 41.1505 27.4497C40.4574 27.8745 40.0672 28.4948 39.9634 29.3012C39.9283 29.5738 39.9583 29.8368 40.0101 30.1042C40.1615 30.8866 40.5622 31.4904 41.2778 31.8521C41.5272 31.9782 41.8109 32.0376 42.0803 32.1231C42.206 32.163 42.3352 32.1924 42.47 32.2286C42.6102 31.6946 42.745 31.1816 42.8807 30.664C42.8186 30.6417 42.7775 30.6237 42.7347 30.6125C42.5544 30.5648 42.3733 30.5195 42.1927 30.4726C42.0528 30.4364 41.9269 30.3754 41.8247 30.2698C41.5321 29.9682 41.4381 29.1699 41.9821 28.8357C42.3418 28.6149 42.7248 28.5899 43.1197 28.6684C43.355 28.715 43.5683 28.8235 43.7517 28.988C44.3009 29.4808 44.4661 30.1301 44.5021 30.8289C44.5091 30.9656 44.4642 31.1057 44.4386 31.2432C44.2531 32.242 43.706 32.9963 42.8498 33.5196C42.1074 33.973 41.2836 34.0883 40.4276 34.0143C40.2994 34.0033 40.17 33.9893 40.0447 33.961C39.4558 33.8282 38.9038 33.5982 38.3838 33.2947C37.8199 32.9655 37.2908 32.5849 36.8028 32.1517C36.2198 31.6345 35.6481 31.1045 35.0714 30.5805C34.7567 30.2944 34.4486 30.0005 34.1248 29.7251C33.3658 29.0794 32.56 28.5047 31.6445 28.0928C31.1904 27.8885 30.7161 27.7472 30.2457 27.5919C30.23 27.5866 30.2092 27.5975 30.1806 27.6027C30.0169 28.094 29.8525 28.5872 29.686 29.087L29.6865 29.0868ZM35.4878 12.5179C35.4595 12.5578 35.439 12.5811 35.4246 12.6076C35.2083 13.0034 34.993 13.3997 34.7768 13.7957C34.3446 14.5878 33.9137 15.3805 33.4772 16.1702C33.4353 16.2458 33.3685 16.3165 33.2967 16.3643C33.1795 16.4426 33.048 16.499 32.9235 16.5666C32.4426 16.8277 31.9617 17.089 31.4814 17.3513C31.0802 17.5704 30.6799 17.7912 30.2792 18.0113C30.0648 18.1291 29.8504 18.247 29.6151 18.3765C29.7113 18.4245 29.7865 18.4588 29.8585 18.4987C30.3433 18.7666 30.8263 19.0376 31.312 19.3038C31.9675 19.6629 32.6262 20.0163 33.2796 20.3791C33.3582 20.4229 33.4303 20.5002 33.4754 20.579C33.6544 20.8918 33.8203 21.2121 33.9931 21.5284C34.404 22.2804 34.816 23.032 35.2285 23.7834C35.3077 23.9277 35.3915 24.0695 35.4862 24.2352C35.5577 24.1002 35.6125 23.993 35.6704 23.8876C36.0432 23.21 36.418 22.5336 36.7896 21.8554C37.0282 21.4203 37.2602 20.9815 37.5013 20.5478C37.5364 20.4847 37.597 20.4252 37.6603 20.3903C38.2471 20.0674 38.8378 19.7512 39.4262 19.4308C39.9523 19.1443 40.4772 18.8553 41.002 18.5663C41.112 18.5057 41.2195 18.4408 41.3413 18.3703C40.8947 18.1264 40.4669 17.8935 40.0401 17.6591C39.6506 17.4453 39.2621 17.2295 38.8727 17.0154C38.5115 16.817 38.1549 16.6094 37.7858 16.4273C37.6309 16.351 37.5259 16.2516 37.4471 16.1042C37.1794 15.6044 36.9072 15.1071 36.6351 14.6099C36.258 13.9204 35.8794 13.2318 35.4878 12.5175V12.5179ZM25.7596 30.3678C25.9672 30.5534 26.1562 30.7277 26.3511 30.8953C26.9528 31.4123 27.5874 31.8873 28.2335 32.3464C28.8743 32.802 29.5305 33.2365 30.163 33.7034C30.6291 34.0474 31.0833 34.4112 31.5155 34.7967C32.2801 35.4786 32.8907 36.299 33.4965 37.118C34.0452 37.8598 34.5899 38.6042 35.2093 39.2884C35.5112 39.6218 35.8298 39.9447 36.172 40.2357C36.4995 40.5142 36.8554 40.7647 37.2203 40.9931C37.824 41.3708 38.4716 41.6599 39.1697 41.8177C39.4957 41.8914 39.822 41.9574 40.1609 41.9714C40.4851 41.9845 40.8029 41.9634 41.1199 41.9121C41.6659 41.8236 42.1708 41.6157 42.6584 41.3617C42.7816 41.2976 42.9046 41.2335 43.0334 41.1665C42.7909 40.6711 42.5577 40.1944 42.3211 39.7107C42.1094 39.8141 41.9134 39.898 41.7288 40.0021C41.1821 40.3101 40.5872 40.3649 39.9841 40.3072C39.2528 40.2374 38.5887 39.9544 37.9723 39.5627C37.425 39.2148 36.9331 38.7999 36.5123 38.3041C36.1995 37.9359 35.8769 37.5752 35.58 37.1943C35.0251 36.4824 34.4925 35.7531 33.9373 35.0416C33.6722 34.7018 33.3819 34.3806 33.0918 34.0614C32.9539 33.9095 32.7848 33.7865 32.6386 33.6416C32.0818 33.0903 31.4518 32.6298 30.8191 32.1734C30.3276 31.8189 29.8219 31.4836 29.3318 31.127C28.7846 30.7289 28.2435 30.3217 27.7085 29.9077C27.4493 29.7072 27.2071 29.4847 26.9617 29.2669C26.8395 29.1584 26.8335 29.1499 26.7177 29.2766C26.535 29.4763 26.3572 29.6805 26.1787 29.8839C26.0431 30.0383 25.9095 30.1946 25.7592 30.3682L25.7596 30.3678ZM28.3888 10.8611C28.4221 10.8214 28.437 10.8084 28.4459 10.7919C28.6861 10.3504 28.9254 9.90877 29.1652 9.4671C29.4234 8.99153 29.6794 8.51499 29.942 8.04193C29.9805 7.97239 30.0411 7.90498 30.1082 7.86313C30.2826 7.75427 30.4659 7.65915 30.6465 7.56036C31.386 7.15588 32.1256 6.75237 32.8648 6.34751C32.8998 6.32833 32.9295 6.29946 32.9703 6.26828C32.5323 6.02226 32.1137 5.78244 31.6906 5.55114C31.194 5.27955 30.693 5.01629 30.1951 4.74742C30.0989 4.69531 30.0129 4.63312 29.9596 4.52755C29.8876 4.38459 29.7964 4.25131 29.7202 4.11048C29.3256 3.38095 28.9338 2.64987 28.5385 1.92072C28.4951 1.84091 28.4351 1.77001 28.375 1.68362C28.1851 2.0294 28.0053 2.35542 27.8268 2.68222C27.4902 3.29823 27.1563 3.9158 26.8157 4.52949C26.7775 4.59826 26.7115 4.66083 26.6437 4.70228C26.4901 4.79643 26.3267 4.87449 26.1684 4.96108C25.5528 5.29757 24.9373 5.63405 24.3224 5.97189C24.1504 6.06642 23.9812 6.16599 23.7786 6.28145C23.9136 6.35157 24.0213 6.40504 24.1264 6.46257C24.8606 6.86531 25.5956 7.26688 26.3276 7.67387C26.5484 7.79669 26.7657 7.89975 26.8993 8.16029C27.3428 9.02562 27.8227 9.87235 28.2898 10.7255C28.3133 10.7683 28.3477 10.8049 28.3892 10.8609L28.3888 10.8611ZM41.3241 21.275C41.345 21.3126 41.3483 21.3287 41.3576 21.3337C41.8148 21.5842 42.2724 21.8341 42.7307 22.0832C43.2003 22.3385 43.6725 22.5896 44.1386 22.8513C44.2178 22.8958 44.2908 22.9743 44.335 23.0545C44.8025 23.9002 45.2634 24.7497 45.727 25.5976C45.7782 25.6911 45.8359 25.781 45.9017 25.8914C45.9368 25.8324 45.96 25.7959 45.9805 25.7582C46.1494 25.4467 46.3164 25.1342 46.4868 24.8235C46.8061 24.2416 47.1307 23.6626 47.4456 23.0781C47.5043 22.9691 47.5804 22.8952 47.686 22.8385C48.0886 22.6215 48.4893 22.4015 48.8906 22.182C49.3937 21.9067 49.8969 21.6313 50.3992 21.3546C50.4288 21.3384 50.4531 21.312 50.4962 21.2769C50.3185 21.1845 50.1591 21.1051 50.0028 21.0201C49.2161 20.5918 48.4298 20.1627 47.6451 19.7307C47.5851 19.6978 47.5264 19.6478 47.4892 19.5912C47.4224 19.4897 47.373 19.3766 47.3151 19.2691C47.1079 18.8828 46.9018 18.496 46.6923 18.1111C46.4612 17.6866 46.2273 17.2639 45.9933 16.8411C45.9703 16.7996 45.9376 16.7634 45.8953 16.7055C45.8483 16.7799 45.8119 16.8314 45.7815 16.8864C45.6571 17.1123 45.5349 17.3393 45.4118 17.5658C45.0513 18.2281 44.6902 18.8902 44.3309 19.5531C44.2862 19.6358 44.2263 19.6908 44.1403 19.7344C43.8938 19.8595 43.6535 19.9973 43.4106 20.13C43.0035 20.3522 42.5961 20.5736 42.1894 20.7963C41.9031 20.9531 41.6181 21.1117 41.3237 21.2744L41.3241 21.275ZM26.4826 33.3487C26.1514 33.7853 25.8305 34.2082 25.5105 34.6299C25.5293 34.6551 25.538 34.6743 25.5528 34.6851C25.9639 34.9848 26.3733 35.287 26.788 35.5819C27.2609 35.9181 27.7478 36.2356 28.211 36.5843C28.5079 36.8079 28.775 37.0708 28.9843 37.3855C29.3238 37.8958 29.5388 38.4607 29.7168 39.0414C29.8978 39.6326 30.0566 40.2312 30.2553 40.8164C30.4064 41.261 30.5803 41.7015 30.7869 42.1227C31.1545 42.8721 31.6201 43.5591 32.1837 44.1801C32.6754 44.7219 33.2159 45.2097 33.7903 45.6578C34.3134 46.0657 34.8599 46.4437 35.396 46.835C35.4824 46.8981 35.5681 46.9619 35.6658 47.0339C35.8354 46.798 36.002 46.5849 36.1478 46.3584C36.2915 46.1355 36.4821 45.9408 36.5843 45.6951C36.1788 45.4044 35.7847 45.1359 35.4062 44.8469C34.9556 44.5028 34.503 44.1588 34.08 43.7824C33.7004 43.4448 33.3441 43.0788 33.0348 42.6699C32.6316 42.1372 32.303 41.5651 32.0409 40.9505C31.7545 40.2783 31.5707 39.5732 31.3633 38.8766C31.1902 38.2948 31.004 37.7209 30.7387 37.1742C30.5263 36.7364 30.2623 36.3327 29.9368 35.9716C29.4795 35.4645 28.9318 35.0673 28.3702 34.6859C27.8477 34.331 27.3327 33.9655 26.8157 33.6027C26.7064 33.526 26.6032 33.4411 26.4822 33.3485L26.4826 33.3487ZM24.2331 38.7293C24.3019 38.7787 24.3658 38.8299 24.4345 38.8731C24.593 38.9725 24.7551 39.066 24.9133 39.1658C25.5921 39.5939 25.9589 40.231 26.0631 41.0059C26.1278 41.4867 26.0838 41.9733 25.8285 42.4136C25.4974 42.9851 25.0678 43.4138 24.3668 43.4864C23.9949 43.525 23.6655 43.4211 23.3665 43.2218C23.0041 42.98 22.8614 42.431 22.9925 42.0667C23.0762 41.8342 23.2013 41.6606 23.4037 41.5281C23.5855 41.409 23.759 41.2771 23.945 41.1448C23.6256 40.6961 23.3169 40.2624 23.0032 39.8215C22.781 39.9811 22.5713 40.1291 22.3647 40.2814C22.2872 40.3385 22.2151 40.4036 22.1431 40.4676C21.738 40.8269 21.4997 41.2792 21.3795 41.8044C21.2201 42.5002 21.3322 43.1519 21.6975 43.7547C22.0215 44.2897 22.4929 44.6617 23.0711 44.8998C23.3957 45.0334 23.7343 45.0993 24.0821 45.1278C24.3071 45.1462 24.525 45.1113 24.7477 45.0789C25.113 45.0259 25.4507 44.9077 25.7652 44.7291C26.4384 44.3467 26.9433 43.8035 27.3012 43.1123C27.6678 42.4045 27.7629 41.6556 27.6877 40.8782C27.6351 40.3345 27.4648 39.8234 27.2074 39.339C27.0304 39.0058 26.8158 38.7022 26.5621 38.426C26.1725 38.0017 25.6761 37.7216 25.1914 37.4266C25.1116 37.378 25.0502 37.3877 24.9981 37.4739C24.7487 37.8869 24.4961 38.2979 24.2326 38.7293H24.2331ZM39.6266 9.65461C39.2679 10.0134 38.8924 10.389 38.5043 10.7774C38.8998 11.1724 39.2751 11.5474 39.6402 11.912C40.0337 11.5222 40.4075 11.1518 40.7772 10.7857C40.4001 10.4151 40.0248 10.0461 39.6266 9.65461ZM42.9795 16.0449C43.3583 15.6764 43.7313 15.3136 44.1123 14.9432C43.7433 14.5589 43.3756 14.1757 42.9962 13.7806C42.6028 14.1753 42.2277 14.5519 41.8578 14.9231C42.25 15.3154 42.622 15.6875 42.9795 16.0449ZM29.6486 12.158C29.2771 12.5375 28.9043 12.9183 28.5222 13.3087C28.8817 13.6649 29.2508 14.0461 29.6199 14.4003C30.0111 14.0089 30.3837 13.6364 30.7405 13.2796C30.3816 12.9112 30.0158 12.5352 29.6484 12.158H29.6486ZM36.3386 4.62518C35.9421 5.02094 35.5697 5.39249 35.2048 5.75667C35.5774 6.13171 35.9524 6.50906 36.3316 6.89068C36.3374 6.8872 36.3562 6.88003 36.3692 6.86724C36.698 6.5389 37.0264 6.21016 37.3541 5.88065C37.4577 5.77624 37.456 5.75803 37.3464 5.64742C37.3146 5.61526 37.2829 5.5831 37.2511 5.55095C36.9484 5.24391 36.6455 4.93668 36.3386 4.62518ZM32.435 24.1029C32.0828 23.7176 31.6985 23.3606 31.3399 22.99C30.9552 23.3822 30.5834 23.7615 30.2336 24.1182C30.5859 24.481 30.951 24.8574 31.3035 25.2202C31.6749 24.8533 32.0446 24.4884 32.435 24.1027V24.1029Z" fill="white"/>
<path d="M21.4056 14.1709C21.3582 14.3218 21.3289 14.4328 21.2888 14.5397C21.0897 15.0697 20.704 15.4297 20.2124 15.6799C20.0134 15.7812 19.7959 15.8494 19.5823 15.9188C19.4802 15.9519 19.3679 15.9643 19.2598 15.9657C18.8597 15.9707 18.4594 15.9674 18.0593 15.9672C17.9958 15.9672 17.932 15.9672 17.8747 15.9672C17.8242 16.1115 17.8135 17.3746 17.86 17.5977H18.6019V19.0938C18.7613 19.143 20.0333 19.1505 20.2527 19.1066V17.4443C20.5885 17.286 20.9063 17.1363 21.2439 16.9772C21.2532 17.0377 21.2662 17.0908 21.2689 17.1444C21.2952 17.6574 21.4044 18.1543 21.5942 18.6289C21.7064 18.9094 21.8555 19.1759 21.9996 19.4425C22.389 20.1625 22.787 20.8781 23.1771 21.5977C23.5026 22.1983 23.827 22.7995 24.1413 23.4061C24.2982 23.7088 24.4336 24.0227 24.5738 24.3338C24.6323 24.4634 24.6282 24.4992 24.5056 24.5765C24.2773 24.7204 24.041 24.8523 23.8036 24.9812C23.6967 25.0393 23.5749 25.0697 23.4676 25.1272C23.1842 25.2793 22.8825 25.3064 22.5682 25.295C22.2597 25.2838 21.9502 25.2925 21.6173 25.2925C21.6028 25.8399 21.614 26.3711 21.6064 26.9284H22.336C22.3488 26.9813 22.3619 27.0109 22.3623 27.0408C22.3643 27.2279 22.3687 27.4154 22.3617 27.6023C22.3515 27.8788 22.2198 28.1095 22.0594 28.3228C22.0217 28.3731 21.9442 28.4084 21.8791 28.4214C21.4943 28.4992 21.1072 28.5655 20.7222 28.6414C20.3629 28.7123 20.005 28.7902 19.6467 28.8663C19.6293 28.87 19.614 28.8845 19.5857 28.901C19.689 29.4204 19.7926 29.9411 19.8983 30.4734C20.525 30.3496 21.1401 30.2279 21.7712 30.1032C21.791 30.4211 21.811 30.7161 21.7046 31.0016C21.6318 31.1973 21.4949 31.3401 21.3119 31.4369C21.1591 31.5179 21.0036 31.5938 20.8473 31.6731C20.8473 31.7573 20.8473 31.8282 20.8473 31.8989C20.8473 32.6478 20.8457 33.3967 20.8473 34.1456C20.8486 34.7241 20.6358 35.2169 20.2409 35.6287C19.7507 36.1396 19.1421 36.3592 18.4394 36.3C17.9911 36.2622 17.5445 36.2023 17.0971 36.1523C16.6372 36.101 16.1767 36.0534 15.7173 35.9978C15.309 35.9486 14.9029 35.8765 14.4935 35.8422C14.2386 35.8209 13.9793 35.8509 13.7221 35.8577C13.4622 35.8645 13.2134 35.9315 12.9659 36.0018C12.5307 36.1256 12.1209 36.3094 11.7351 36.5446C10.9828 37.0031 10.3584 37.6054 9.82134 38.2972C9.569 38.6222 9.35054 38.9736 9.1166 39.313C9.092 39.3486 9.06605 39.3835 9.00698 39.4658C8.98064 39.4126 8.96883 39.3744 8.94598 39.345C8.44322 38.6921 7.93756 38.0418 7.43616 37.3881C6.94271 36.7449 6.45641 36.096 6.0319 35.4042C5.76948 34.9769 5.50281 34.5513 5.26227 34.1116C4.92278 33.4909 4.62957 32.8487 4.41867 32.1694C4.27536 31.7074 4.17581 31.2388 4.09118 30.763C3.98408 30.1609 3.9988 29.5571 4.00326 28.9523C4.005 28.7145 4.02901 28.4762 4.05264 28.2391C4.10028 27.759 4.13689 27.2769 4.21009 26.8005C4.31351 26.1276 4.38671 25.4484 4.56063 24.7876C4.71304 24.2094 4.84163 23.6232 5.02852 23.0562C5.2706 22.3215 5.5826 21.6142 6.00498 20.9591C6.38689 20.3665 6.81605 19.8128 7.30176 19.3028C7.5328 19.0603 7.76656 18.8204 7.99837 18.5789C8.51159 18.044 9.03235 17.516 9.53511 16.9714C9.95943 16.5117 10.3433 16.018 10.6985 15.5017C11.0273 15.0236 11.3337 14.5326 11.6056 14.0196C12.0262 13.2263 12.388 12.4083 12.6552 11.5501C12.8276 10.9963 12.9918 10.4405 13.0728 9.86343C13.1344 9.42448 13.2085 8.98707 13.2688 8.54791C13.3021 8.30558 13.31 8.05975 13.3443 7.8178C13.4032 7.40403 13.4653 6.99025 13.5424 6.57938C13.6054 6.24425 13.6797 5.9099 13.7713 5.58155C13.9499 4.94152 14.2321 4.34662 14.662 3.83773C14.9877 3.45223 15.3819 3.13803 15.8331 2.90382C16.0326 2.80019 16.2359 2.70391 16.4385 2.60376C17.4862 3.45165 18.3932 4.41054 19.1233 5.53332C19.6235 6.30256 20.0465 7.11113 20.3807 7.96561C20.6391 8.62617 20.8355 9.30689 20.9861 9.99865C21.0818 10.4378 21.1176 10.8899 21.2098 11.3301C21.2906 11.7159 21.3026 12.1055 21.3431 12.522C20.7849 12.5266 20.2337 12.5237 19.6828 12.5241C19.1211 12.5247 18.5597 12.5241 17.9981 12.5241C17.4436 12.5241 16.8891 12.5241 16.3384 12.5241C16.2946 12.6615 16.2803 13.8792 16.3192 14.1711H21.4052L21.4056 14.1709ZM4.66462 28.0287C4.74267 28.1874 4.81278 28.3305 4.88346 28.4737C5.04866 28.8082 5.2125 29.1435 5.37983 29.4771C5.59867 29.9137 5.8177 30.3504 6.04119 30.7847C6.2765 31.2417 6.51141 31.6988 6.75679 32.1504C7.007 32.6108 7.38291 32.9694 7.76869 33.3098C8.32276 33.7985 8.96244 34.1644 9.62361 34.486C10.1957 34.7642 10.7827 35.0119 11.3635 35.2719C11.4859 35.3267 11.5002 35.3172 11.5508 35.2016C11.6902 34.8831 11.8326 34.566 11.9724 34.2479C12.0285 34.1199 12.0812 33.9903 12.1382 33.8551C12.0946 33.825 12.0609 33.7939 12.0214 33.776C11.8459 33.6968 11.6689 33.6213 11.4923 33.5445C10.8021 33.2453 10.1093 32.9508 9.47178 32.5452C9.05733 32.2815 8.67058 31.9849 8.3551 31.6026C8.11515 31.3118 7.95073 30.9772 7.78418 30.6433C7.51169 30.0968 7.23746 29.5511 6.96459 29.0048C6.70295 28.4814 6.44111 27.958 6.1816 27.4336C6.11227 27.2934 6.10201 27.2874 5.97012 27.3534C5.5915 27.5427 5.21192 27.73 4.83369 27.9202C4.77869 27.9479 4.72931 27.9869 4.66443 28.0291L4.66462 28.0287Z" fill="white"/>
<path d="M35.4932 15.9287C35.5803 16.0829 35.6572 16.2144 35.7298 16.3479C35.9237 16.7047 36.1131 17.0641 36.3116 17.4182C36.3432 17.4746 36.4067 17.5201 36.4656 17.5526C36.9168 17.8017 37.3706 18.0462 37.823 18.2934C37.8551 18.311 37.8826 18.3374 37.9324 18.3749C37.8648 18.4181 37.8148 18.4548 37.7612 18.484C37.3601 18.7031 36.961 18.9261 36.5554 19.1366C36.403 19.2157 36.3074 19.3298 36.2289 19.4774C35.9907 19.9256 35.7434 20.3689 35.4841 20.8423C35.4057 20.7069 35.3369 20.5951 35.2747 20.4795C35.07 20.0994 34.8696 19.7168 34.662 19.3381C34.6331 19.2856 34.5799 19.2387 34.5268 19.2087C34.2462 19.0504 33.9617 18.8991 33.6795 18.744C33.4676 18.6274 33.2569 18.5086 33.0127 18.3724C33.1022 18.3221 33.1611 18.2876 33.2209 18.2552C33.6344 18.0311 34.0446 17.8008 34.4631 17.5863C34.65 17.4904 34.7059 17.3105 34.795 17.1511C35.0057 16.7741 35.2085 16.3925 35.4157 16.0134C35.4273 15.9919 35.4494 15.9762 35.4938 15.9287H35.4932Z" fill="white"/>
<path d="M29.593 6.28685C29.4204 6.38293 29.2822 6.47494 29.1321 6.54003C28.908 6.63708 28.7515 6.78857 28.65 7.01095C28.5796 7.16554 28.4845 7.30908 28.383 7.48827C28.2931 7.32865 28.2211 7.20273 28.1512 7.07585C28.1295 7.03652 28.1128 6.9943 28.0948 6.95303C28.0044 6.74692 27.8343 6.62875 27.6397 6.53519C27.5123 6.47398 27.3881 6.40618 27.2634 6.33934C27.2421 6.32791 27.2258 6.30661 27.1933 6.27755C27.234 6.24791 27.265 6.2204 27.3002 6.20064C27.4799 6.10049 27.6649 6.00867 27.8394 5.90038C27.9116 5.85564 27.9765 5.78493 28.0204 5.71171C28.1419 5.50947 28.2505 5.29967 28.3797 5.0647C28.4357 5.15613 28.4775 5.21889 28.5139 5.28476C28.5947 5.43082 28.6644 5.58405 28.7552 5.72333C28.8052 5.80004 28.8803 5.86842 28.9587 5.91704C29.1278 6.02165 29.3064 6.11076 29.4805 6.20723C29.508 6.22253 29.5322 6.24365 29.5926 6.28665L29.593 6.28685Z" fill="white"/>
<path d="M44.6826 21.2914C44.884 21.18 45.0405 21.0816 45.2067 21.0045C45.391 20.9188 45.5243 20.7982 45.6045 20.6072C45.6664 20.4595 45.7557 20.3237 45.8322 20.1821C45.8473 20.1541 45.8589 20.124 45.8721 20.095C45.8884 20.1021 45.9048 20.1093 45.9211 20.1165C45.99 20.2364 46.0789 20.3493 46.1241 20.4778C46.2331 20.7887 46.4641 20.9597 46.7479 21.087C46.8681 21.1408 46.9814 21.2106 47.1245 21.2875C47.0589 21.3284 47.0244 21.3522 46.9878 21.3721C46.8015 21.4738 46.6103 21.5676 46.43 21.6792C46.3578 21.7239 46.2984 21.8002 46.2528 21.8742C46.1622 22.0222 46.0859 22.179 46.0021 22.3312C45.9778 22.3754 45.9484 22.4165 45.9104 22.4761C45.8696 22.4267 45.8326 22.3928 45.809 22.3512C45.7234 22.2005 45.6351 22.0505 45.5617 21.894C45.5127 21.7894 45.4482 21.7131 45.3459 21.6588C45.1375 21.5486 44.9332 21.4308 44.6822 21.2912L44.6826 21.2914Z" fill="white"/>
</g>
<defs>
<filter id="filter0_d_138_157" x="0" y="0" width="56.9908" height="58.0964" filterUnits="userSpaceOnUse" color-interpolation-filters="sRGB">
<feFlood flood-opacity="0" result="BackgroundImageFix"/>
<feColorMatrix in="SourceAlpha" type="matrix" values="0 0 0 0 0 0 0 0 0 0 0 0 0 0 0 0 0 0 127 0" result="hardAlpha"/>
<feOffset dy="4"/>
<feGaussianBlur stdDeviation="2"/>
<feComposite in2="hardAlpha" operator="out"/>
<feColorMatrix type="matrix" values="0 0 0 0 0 0 0 0 0 0 0 0 0 0 0 0 0 0 0.15 0"/>
<feBlend mode="normal" in2="BackgroundImageFix" result="effect1_dropShadow_138_157"/>
<feBlend mode="normal" in="SourceGraphic" in2="effect1_dropShadow_138_157" result="shape"/>
</filter>
</defs>
</svg>
