<svg width="48" height="42" viewBox="0 0 48 42" fill="none" xmlns="http://www.w3.org/2000/svg">
<g filter="url(#filter0_d_454_157)">
<path d="M8.28571 0C5.9308 0 4 1.91471 4 4.25V29.75C4 32.0853 5.9308 34 8.28571 34H39.7143C42.0692 34 44 32.0853 44 29.75V4.25C44 1.91471 42.0692 0 39.7143 0H8.28571ZM8.28571 2.83333H39.7143C40.5179 2.83333 41.1429 3.45312 41.1429 4.25V24.8359L31.1317 14.3548L25.5513 20.5859L16.9464 11.5879L6.85714 22.8548V4.25C6.85714 3.45312 7.48214 2.83333 8.28571 2.83333ZM32.5714 5.66667C30.9978 5.66667 29.7143 6.93945 29.7143 8.5C29.7143 10.0605 30.9978 11.3333 32.5714 11.3333C34.1451 11.3333 35.4286 10.0605 35.4286 8.5C35.4286 6.93945 34.1451 5.66667 32.5714 5.66667ZM17.0134 15.7715L31.7344 31.1667H8.28571C7.48214 31.1667 6.85714 30.5469 6.85714 29.75V27.127L17.0134 15.7715ZM31.1875 18.5495L41.1429 28.9531V29.75C41.1429 30.5469 40.5179 31.1667 39.7143 31.1667H35.6629L27.5268 22.6445L31.1875 18.5495Z" fill="white"/>
</g>
<defs>
<filter id="filter0_d_454_157" x="0" y="0" width="48" height="42" filterUnits="userSpaceOnUse" color-interpolation-filters="sRGB">
<feFlood flood-opacity="0" result="BackgroundImageFix"/>
<feColorMatrix in="SourceAlpha" type="matrix" values="0 0 0 0 0 0 0 0 0 0 0 0 0 0 0 0 0 0 127 0" result="hardAlpha"/>
<feOffset dy="4"/>
<feGaussianBlur stdDeviation="2"/>
<feComposite in2="hardAlpha" operator="out"/>
<feColorMatrix type="matrix" values="0 0 0 0 0 0 0 0 0 0 0 0 0 0 0 0 0 0 0.15 0"/>
<feBlend mode="normal" in2="BackgroundImageFix" result="effect1_dropShadow_454_157"/>
<feBlend mode="normal" in="SourceGraphic" in2="effect1_dropShadow_454_157" result="shape"/>
</filter>
</defs>
</svg>
