<svg width="50" height="53" viewBox="0 0 50 53" fill="none" xmlns="http://www.w3.org/2000/svg">
<g filter="url(#filter0_d_751_213)">
<path d="M15.7136 20.0484C15.3075 20.6455 14.9142 21.1967 14.5501 21.7665C14.1874 22.334 13.5897 22.5872 12.9252 22.4591C12.3969 22.3572 11.8601 22.3009 11.3269 22.2254C10.1295 22.0559 8.93213 21.8868 7.73475 21.7179C7.13102 21.6329 6.52179 21.576 5.92447 21.4588C4.75366 21.2294 3.94991 20.1573 4.00243 18.9433C4.05221 17.7916 4.95857 16.814 6.10953 16.6525C6.49186 16.599 6.85832 16.6755 7.22935 16.7305C8.58644 16.9324 9.94323 17.1337 11.3003 17.3356C11.5416 17.3713 11.7837 17.4032 12.0232 17.4484C12.1419 17.4708 12.203 17.4356 12.2647 17.331C13.1772 15.7899 14.0945 14.252 15.011 12.7134C15.3118 12.2084 15.7536 11.9019 16.3241 11.7753C18.3664 11.3207 20.4088 10.8662 22.4512 10.411C23.3285 10.2156 24.2034 10.0073 25.0835 9.82557C25.7501 9.68792 26.338 9.87022 26.8419 10.3339C27.9956 11.3953 29.1533 12.4522 30.3076 13.513C30.372 13.5723 30.4255 13.5842 30.5101 13.5521C31.9578 13.0031 33.4108 12.4665 34.8553 11.9086C36.1284 11.4171 37.5637 12.0573 38.0339 13.3472C38.5027 14.6331 37.8199 16.0674 36.5242 16.4959C34.5236 17.1575 32.5185 17.8054 30.5189 18.4695C29.8639 18.6869 29.3026 18.5732 28.781 18.1183C27.7378 17.2086 26.6797 16.3161 25.6274 15.4168C25.5898 15.3846 25.5498 15.3556 25.4936 15.3115C25.4906 15.3785 25.4866 15.4269 25.4866 15.4749C25.4866 20.7275 25.486 25.9804 25.4894 31.233C25.4894 31.3128 25.5168 31.4049 25.562 31.4703C27.2663 33.9486 28.97 36.4268 30.686 38.8971C30.9467 39.2724 31.1981 39.6395 31.2937 40.0962C31.5196 41.1768 30.9922 42.2811 30.0016 42.783C29.0186 43.281 27.7934 43.062 27.0834 42.2162C26.4653 41.48 25.8885 40.7088 25.2957 39.9512C24.2419 38.6041 23.1773 37.2652 22.1464 35.901C21.8905 35.5627 21.7005 35.1565 21.5564 34.7543C21.0492 33.3374 20.5749 31.909 20.0879 30.4848C20.0747 30.4465 20.061 30.4083 20.0375 30.3413C20.0054 30.4025 19.9822 30.4426 19.9633 30.4845C19.2594 32.0191 18.5546 33.5534 17.8555 35.0901C17.8217 35.1648 17.8131 35.2684 17.8336 35.348C18.3732 37.4408 18.9143 39.5333 19.4652 41.6234C19.6047 42.1529 19.6909 42.6744 19.5376 43.2168C19.241 44.2656 18.2751 45.0025 17.181 45.0013C16.0917 45.0004 15.0995 44.2604 14.8381 43.2054C14.475 41.7394 14.1425 40.2656 13.7986 38.7946C13.4789 37.4277 13.1616 36.0601 12.8434 34.6928C12.7533 34.3052 12.7796 33.925 12.9158 33.5515C13.485 31.9894 14.0545 30.4276 14.6225 28.8651C14.9752 27.8952 15.3255 26.9243 15.6749 25.9531C15.6984 25.8874 15.7185 25.8158 15.7185 25.747C15.721 23.8875 15.7204 22.0278 15.7204 20.1683C15.7204 20.1442 15.7179 20.12 15.7142 20.0496L15.7136 20.0484Z" fill="white"/>
<path d="M39.16 23.4709C39.16 22.1972 39.16 20.9232 39.16 19.6495C39.16 18.994 39.5753 18.5862 40.2307 18.5865C40.9727 18.5869 41.6876 18.7196 42.3631 19.0301C43.1965 19.4133 44.0723 19.5693 44.9845 19.5706C45.146 19.5706 45.3213 19.6122 45.4663 19.6828C45.8044 19.8477 45.9864 20.1398 45.9925 20.5154C46.0035 21.1826 46.0011 21.8503 45.994 22.5177C45.9882 23.0509 45.5586 23.4705 45.0248 23.4776C44.2513 23.4877 43.5266 23.302 42.8447 22.9368C42.5094 22.7569 42.1759 22.5688 41.7902 22.511C41.4384 22.4584 41.192 22.5939 41.1263 22.8875C41.1111 22.9561 41.1138 23.0292 41.1135 23.1001C41.1129 25.4998 41.1156 27.8997 41.112 30.2993C41.1092 32.1989 39.8346 33.7696 37.9825 34.1577C37.7599 34.2045 37.529 34.2351 37.3021 34.2333C36.7539 34.2284 36.1969 34.2578 35.6601 34.17C34.3039 33.9476 33.3053 32.7094 33.2998 31.3216C33.2943 29.9216 34.2828 28.6965 35.6396 28.4329C35.843 28.3934 36.0531 28.375 36.2602 28.3723C36.8602 28.3643 37.4606 28.3695 38.0607 28.3695C38.7725 28.3695 39.1594 27.9792 39.1594 27.2613C39.1594 25.9977 39.1594 24.7341 39.1594 23.4706L39.16 23.4709Z" fill="white"/>
<path d="M19.135 8.80417C16.711 8.80234 14.7416 6.82665 14.7434 4.39857C14.7455 1.97018 16.7177 -0.00183401 19.1418 1.27999e-06C21.5667 0.00183657 23.5352 1.9766 23.5331 4.4053C23.5309 6.8343 21.5597 8.80601 19.135 8.80417Z" fill="white"/>
</g>
<defs>
<filter id="filter0_d_751_213" x="0" y="0" width="50" height="53.0012" filterUnits="userSpaceOnUse" color-interpolation-filters="sRGB">
<feFlood flood-opacity="0" result="BackgroundImageFix"/>
<feColorMatrix in="SourceAlpha" type="matrix" values="0 0 0 0 0 0 0 0 0 0 0 0 0 0 0 0 0 0 127 0" result="hardAlpha"/>
<feOffset dy="4"/>
<feGaussianBlur stdDeviation="2"/>
<feComposite in2="hardAlpha" operator="out"/>
<feColorMatrix type="matrix" values="0 0 0 0 0 0 0 0 0 0 0 0 0 0 0 0 0 0 0.15 0"/>
<feBlend mode="normal" in2="BackgroundImageFix" result="effect1_dropShadow_751_213"/>
<feBlend mode="normal" in="SourceGraphic" in2="effect1_dropShadow_751_213" result="shape"/>
</filter>
</defs>
</svg>
