<svg width="44" height="54" viewBox="0 0 44 54" fill="none" xmlns="http://www.w3.org/2000/svg">
<g filter="url(#filter0_d_136_155)">
<path d="M14.077 45.4675C14.015 45.4675 13.9788 45.4675 13.9423 45.4675C11.9941 45.4675 10.0459 45.4746 8.09774 45.4649C6.28679 45.4555 4.71253 44.2752 4.18003 42.5505C3.62589 40.7547 4.38703 38.8023 5.97355 37.8109C7.93467 36.5851 9.87964 35.3309 11.6612 33.8477C12.1062 33.4773 12.5111 33.0572 12.9177 32.6435C13.1951 32.3613 13.3259 32.0187 13.3036 31.6047C13.2758 31.0896 13.2968 30.5716 13.2968 30.055C13.2968 29.9965 13.2968 29.9381 13.2968 29.8599C12.9322 29.9458 12.5838 30.0288 12.235 30.1102C11.0422 30.3885 9.85348 30.6876 8.65511 30.9385C7.04469 31.2759 5.40585 30.1463 5.09261 28.5211C4.92728 27.6631 5.11619 26.8893 5.57668 26.1518C5.95773 25.5414 6.28711 24.8991 6.63555 24.2688C7.90625 21.968 9.17857 19.6678 10.4431 17.3634C10.7955 16.7214 11.2388 16.1789 11.9057 15.8431C12.3494 15.6196 12.8299 15.5224 13.311 15.4433C14.8756 15.1866 16.4395 14.9227 18.0102 14.7083C19.2628 14.5375 20.5264 14.4264 21.792 14.4752C22.909 14.5181 24.0266 14.5963 25.1384 14.7106C26.8128 14.8827 28.47 15.1762 30.1228 15.4972C30.9333 15.6545 31.6589 15.9574 32.1885 16.6161C32.3694 16.8409 32.5269 17.0886 32.6671 17.3414C34.2688 20.2332 35.8615 23.1302 37.467 26.02C37.6815 26.4059 37.9136 26.777 38.0186 27.2132C38.44 28.9648 37.1848 30.7599 35.3971 30.9759C34.8865 31.0376 34.4012 30.9407 33.9145 30.8261C32.586 30.5135 31.2588 30.1961 29.931 29.8809C29.9054 29.8748 29.8786 29.8735 29.8302 29.8667V30.0437C29.8302 30.582 29.8386 31.1203 29.8267 31.6579C29.8212 31.9092 29.8967 32.1207 30.0401 32.318C30.394 32.8056 30.8361 33.2077 31.2918 33.5945C32.8037 34.8781 34.4361 35.9977 36.0801 37.1008C36.6019 37.4509 37.1554 37.7657 37.6301 38.1716C38.9389 39.2909 39.4223 40.7321 38.9796 42.3929C38.5336 44.0653 37.3905 45.067 35.6858 45.4032C35.4449 45.4507 35.194 45.4646 34.9479 45.4646C29.2971 45.4678 23.6465 45.4678 17.9957 45.4665C16.4792 45.4662 15.3228 44.2817 15.3648 42.7791C15.3978 41.6027 16.2642 40.6091 17.4816 40.3375C19.7627 39.8286 22.0429 39.3145 24.3234 38.8023C25.1727 38.6115 26.0194 38.4077 26.8719 38.2337C27.7344 38.0577 28.0131 37.1141 27.5132 36.5315C27.2636 36.2409 26.9362 36.1085 26.5587 36.1902C25.3561 36.4505 24.1564 36.7246 22.9561 36.9939C20.9272 37.4493 18.8983 37.9049 16.8693 38.3602C15.0894 38.7597 13.6265 40.3411 13.3575 42.141C13.1841 43.3013 13.4024 44.3753 14.0211 45.3699C14.035 45.3922 14.0476 45.4158 14.077 45.4668V45.4675ZM21.5349 19.246C21.5501 19.248 21.565 19.2496 21.5801 19.2515C21.5979 19.2954 21.617 19.339 21.6337 19.3836C22.0545 20.5087 22.3542 21.6676 22.5957 22.8421C22.69 23.301 22.9416 23.5978 23.3908 23.7444C24.4067 24.076 25.4184 24.4203 26.4324 24.758C27.4515 25.0977 28.4704 25.4371 29.4902 25.7743C29.8819 25.9038 30.2387 25.8292 30.5377 25.5489C30.8222 25.2821 30.9239 24.9457 30.8322 24.5633C30.7273 24.1251 30.4195 23.9007 30.0072 23.765C28.2417 23.1844 26.4808 22.5912 24.7154 22.0109C24.5601 21.9599 24.501 21.8817 24.4674 21.7293C24.2123 20.5687 23.9155 19.4195 23.4389 18.326C23.2209 17.8265 22.9697 17.3453 22.5793 16.9536C22.3904 16.764 22.1737 16.6178 21.905 16.5645C21.2863 16.4418 20.7845 16.6326 20.3886 17.1215C20.0253 17.5697 19.7769 18.0809 19.5645 18.6112C19.1534 19.6368 18.8799 20.7031 18.6441 21.7797C18.6183 21.8979 18.5705 21.958 18.451 21.9974C16.6413 22.5948 14.8336 23.1983 13.0256 23.8009C12.4333 23.9982 12.1311 24.5636 12.3174 25.1233C12.5047 25.6861 13.0782 25.9625 13.6724 25.7652C15.6961 25.0932 17.7176 24.4148 19.7417 23.7444C20.1903 23.5958 20.4305 23.2949 20.5361 22.8392C20.7263 22.018 20.9349 21.2007 21.1549 20.3869C21.2592 20.0007 21.4074 19.6261 21.5356 19.2464L21.5349 19.246Z" fill="white"/>
<path d="M21.5579 12.4C18.1371 12.3951 15.3593 9.61184 15.3642 6.19369C15.369 2.77263 18.152 -0.00483753 21.5704 6.32609e-06C24.9928 0.00485019 27.769 2.78684 27.7638 6.20628C27.7586 9.62863 24.977 12.4048 21.5575 12.4H21.5579Z" fill="white"/>
</g>
<defs>
<filter id="filter0_d_136_155" x="6.10352e-05" y="0" width="43.1397" height="53.47" filterUnits="userSpaceOnUse" color-interpolation-filters="sRGB">
<feFlood flood-opacity="0" result="BackgroundImageFix"/>
<feColorMatrix in="SourceAlpha" type="matrix" values="0 0 0 0 0 0 0 0 0 0 0 0 0 0 0 0 0 0 127 0" result="hardAlpha"/>
<feOffset dy="4"/>
<feGaussianBlur stdDeviation="2"/>
<feComposite in2="hardAlpha" operator="out"/>
<feColorMatrix type="matrix" values="0 0 0 0 0 0 0 0 0 0 0 0 0 0 0 0 0 0 0.15 0"/>
<feBlend mode="normal" in2="BackgroundImageFix" result="effect1_dropShadow_136_155"/>
<feBlend mode="normal" in="SourceGraphic" in2="effect1_dropShadow_136_155" result="shape"/>
</filter>
</defs>
</svg>
