<svg width="52" height="52" viewBox="0 0 52 52" fill="none" xmlns="http://www.w3.org/2000/svg">
<g clip-path="url(#clip0_751_116)">
<g filter="url(#filter0_d_751_116)">
<path d="M12.9322 4.33337C12.6444 4.33337 12.4244 4.52804 12.3905 4.80733L12.052 7.65108C11.3241 7.93884 10.6978 8.26892 10.0884 8.73442L7.44782 7.58337C7.18545 7.46489 6.84691 7.54952 6.70303 7.7865L4.40095 11.6459C4.25707 11.8829 4.37556 12.1621 4.60407 12.323L6.90616 14.0157C6.85538 14.3881 6.83845 14.7097 6.83845 15.099C6.83845 15.4799 6.85538 15.8776 6.90616 16.25L4.53636 17.875C4.30785 18.0358 4.25707 18.3829 4.40095 18.6198L6.70303 22.4115C6.84691 22.6485 7.11774 22.8008 7.38011 22.6823L10.0207 21.5313C10.6301 21.9968 11.3241 22.3946 12.052 22.6823L12.3228 25.4584C12.3482 25.7377 12.5767 26 12.8645 26H17.4009C17.6887 26 17.9088 25.8054 17.9426 25.5261L18.2812 22.6823C19.009 22.403 19.6353 22.0645 20.2447 21.599L22.8853 22.75C23.1477 22.8685 23.4862 22.7839 23.6301 22.5469L25.9322 18.6875C26.0761 18.4506 25.9576 18.1713 25.7291 18.0105L23.427 16.3177C23.4778 15.9454 23.4947 15.6153 23.4947 15.2344C23.4947 14.8536 23.4778 14.4558 23.427 14.0834L25.7968 12.4584C26.0253 12.2976 26.0761 11.959 25.9322 11.7136L23.6301 7.85421C23.4862 7.61723 23.2154 7.53259 22.953 7.65108L20.3124 8.80212C19.703 8.33663 19.009 7.93884 18.2812 7.65108L18.0103 4.87504C17.9849 4.59574 17.7564 4.33337 17.4687 4.33337H12.9322ZM34.6666 6.50004V30.6042C33.3886 30.2826 31.9159 30.2233 30.3332 30.6042C25.5429 31.7468 21.6666 35.987 21.6666 40.0157C21.6666 44.0443 25.5429 46.3718 30.3332 45.2292C34.9882 44.112 38.7291 40.0834 38.9322 36.1563H38.9999V15.1667H47.6666V6.50004H34.6666ZM26.6093 8.66671L27.7603 10.6302C28.2004 11.375 28.2004 12.2468 27.8957 13H32.4999V8.66671H26.6093ZM15.1666 10.8334C17.621 10.8503 19.6438 12.78 19.6353 15.1667C19.6269 17.5534 17.621 19.517 15.1666 19.5C12.7121 19.4831 10.6894 17.5619 10.6978 15.1667C10.7063 12.78 12.7121 10.8164 15.1666 10.8334ZM27.8957 19.5C27.8534 19.6101 27.8196 19.737 27.7603 19.8386L25.4582 23.6302C25.4159 23.7064 25.3736 23.7657 25.3228 23.8334H32.4999V19.5H27.8957ZM4.33324 30.3334V34.6667H21.1249C22.1913 32.974 23.774 31.476 25.5937 30.3334H4.33324ZM4.33324 41.1667V45.5H21.9374C20.6679 44.3575 19.8892 42.8679 19.6353 41.1667H4.33324Z" fill="white"/>
</g>
</g>
<defs>
<filter id="filter0_d_751_116" x="0.320312" y="4.33337" width="51.3462" height="49.1864" filterUnits="userSpaceOnUse" color-interpolation-filters="sRGB">
<feFlood flood-opacity="0" result="BackgroundImageFix"/>
<feColorMatrix in="SourceAlpha" type="matrix" values="0 0 0 0 0 0 0 0 0 0 0 0 0 0 0 0 0 0 127 0" result="hardAlpha"/>
<feOffset dy="4"/>
<feGaussianBlur stdDeviation="2"/>
<feComposite in2="hardAlpha" operator="out"/>
<feColorMatrix type="matrix" values="0 0 0 0 0 0 0 0 0 0 0 0 0 0 0 0 0 0 0.15 0"/>
<feBlend mode="normal" in2="BackgroundImageFix" result="effect1_dropShadow_751_116"/>
<feBlend mode="normal" in="SourceGraphic" in2="effect1_dropShadow_751_116" result="shape"/>
</filter>
<clipPath id="clip0_751_116">
<rect width="52" height="52" fill="white"/>
</clipPath>
</defs>
</svg>
