<svg width="49" height="58" viewBox="0 0 49 58" fill="none" xmlns="http://www.w3.org/2000/svg">
<g filter="url(#filter0_d_751_217)">
<path d="M12.2181 19.4344C11.4543 19.9787 10.7073 20.5111 9.94929 21.0513C9.98031 21.0977 10.0052 21.1394 10.0345 21.1777C11.3749 22.9376 12.7126 24.6996 14.0578 26.4558C14.8386 27.4752 14.6297 29.0369 13.5609 29.8262C12.61 30.5287 11.563 30.6304 10.4687 30.1793C10.1207 30.0359 9.84637 29.7974 9.62348 29.4913C7.96338 27.2085 6.31385 24.9178 4.62786 22.654C4.02258 21.8416 3.87875 20.9761 4.09653 20.0298C4.36782 18.8518 4.98435 17.9012 6.00337 17.2068C8.44291 15.5441 10.8685 13.8615 13.3063 12.1961C13.5118 12.0558 13.7575 11.9636 13.9958 11.8823C16.9891 10.8642 19.9842 9.85192 22.9802 8.84199C23.0944 8.80335 23.138 8.74879 23.1503 8.63221C23.2542 7.63854 23.3609 6.64488 23.473 5.65224C23.594 4.5813 23.6932 3.50664 23.8568 2.44181C23.972 1.6908 24.3329 1.04079 24.9621 0.576151C25.6396 0.0752533 26.4129 -0.0911479 27.2353 0.0467855C27.8501 0.150151 28.2884 0.552428 28.65 1.03503C29.1425 1.69216 29.3088 2.41809 29.1929 3.23823C29.0191 4.46743 28.8977 5.70409 28.7532 6.93735C28.6108 8.15401 28.4697 9.37068 28.3238 10.5867C28.2747 10.9954 28.2502 11.4122 28.149 11.8084C27.8484 12.9813 27.0778 13.7405 25.9344 14.1099C24.3878 14.6098 22.8313 15.0805 21.2792 15.5641C21.2097 15.5858 21.1409 15.6095 21.0553 15.6377C22.0464 17.1214 23.0276 18.5912 24.0173 20.0729C24.5088 19.7465 24.989 19.4283 25.4685 19.109C29.8265 16.2074 34.1837 13.3047 38.5434 10.4053C39.0666 10.0573 39.5887 9.70416 40.1343 9.39304C40.7355 9.05041 41.3902 8.843 42.0916 8.82233C43.0902 8.79319 43.856 9.21614 44.4088 10.0302C45.2417 11.2553 45.1899 13.1122 44.2881 14.2095C44.1538 14.3732 43.9896 14.523 43.8134 14.641C38.6896 18.0693 33.5614 21.4909 28.437 24.9182C27.2987 25.6793 26.2149 26.5086 25.3107 27.5464C24.5517 28.4173 23.9706 29.3832 23.7678 30.5355C23.7085 30.8727 23.6809 31.2201 23.6803 31.5627C23.6748 36.6012 23.6758 41.6393 23.6772 46.6778C23.6772 47.4759 23.4748 48.2093 22.9744 48.8423C22.3647 49.6137 21.5372 49.9573 20.5717 49.9973C18.2457 50.0932 17.137 48.1699 17.1254 46.6784C17.0733 40.0532 16.9966 33.428 16.9261 26.8032C16.9254 26.7296 16.9008 26.6466 16.861 26.5846C15.344 24.2397 13.824 21.8969 12.3043 19.5537C12.2804 19.5167 12.2525 19.4818 12.2184 19.4347L12.2181 19.4344Z" fill="white"/>
<path d="M9.49129 10.9561C6.44068 10.952 4.04307 8.56412 4.04443 5.53128C4.0458 2.49098 6.45602 0.101716 9.51242 0.110866C12.5644 0.120355 14.9576 2.51097 14.9508 5.54381C14.9439 8.57835 12.5416 10.9602 9.49129 10.9561Z" fill="white"/>
</g>
<defs>
<filter id="filter0_d_751_217" x="0.000732422" y="0.000244141" width="48.9998" height="58.0005" filterUnits="userSpaceOnUse" color-interpolation-filters="sRGB">
<feFlood flood-opacity="0" result="BackgroundImageFix"/>
<feColorMatrix in="SourceAlpha" type="matrix" values="0 0 0 0 0 0 0 0 0 0 0 0 0 0 0 0 0 0 127 0" result="hardAlpha"/>
<feOffset dy="4"/>
<feGaussianBlur stdDeviation="2"/>
<feComposite in2="hardAlpha" operator="out"/>
<feColorMatrix type="matrix" values="0 0 0 0 0 0 0 0 0 0 0 0 0 0 0 0 0 0 0.15 0"/>
<feBlend mode="normal" in2="BackgroundImageFix" result="effect1_dropShadow_751_217"/>
<feBlend mode="normal" in="SourceGraphic" in2="effect1_dropShadow_751_217" result="shape"/>
</filter>
</defs>
</svg>
