<svg width="19" height="19" viewBox="0 0 19 19" fill="none" xmlns="http://www.w3.org/2000/svg">
<g clip-path="url(#clip0_748_79)">
<g filter="url(#filter0_d_748_79)">
<path d="M9.67946 19C8.52685 18.8584 7.38223 18.549 6.24559 18.0715C5.10894 17.5901 4.08795 16.8964 3.18262 15.9902C2.27729 15.0798 1.53348 13.9309 0.951196 12.5433C0.3729 11.1516 0.0618177 9.48079 0.0179471 7.53082L0 6.59023L0.897354 6.6145C1.68702 6.63473 2.55647 6.78239 3.50566 7.05749C4.45486 7.32854 5.30037 7.70276 6.04218 8.18014C6.18576 6.78846 6.57461 5.3442 7.20875 3.84733C7.84287 2.34642 8.60662 1.06398 9.49999 0C10.3934 1.06398 11.1571 2.34845 11.7912 3.8534C12.4253 5.35836 12.8142 6.80667 12.9578 8.19835C13.6796 7.74119 14.5072 7.369 15.4404 7.08176C16.3777 6.79048 17.2571 6.63473 18.0787 6.6145L19 6.59023L18.982 7.54902C18.9581 9.31694 18.7008 10.8603 18.2103 12.1792C17.7198 13.498 17.0557 14.6186 16.2182 15.5411C15.3847 16.4594 14.4095 17.1997 13.2928 17.7621C12.1801 18.3244 10.9756 18.737 9.67946 19ZM9.64356 17.4162C9.45612 14.5519 8.61859 12.3855 7.13098 10.9169C5.64336 9.44842 3.79281 8.54222 1.57935 8.19835C1.76679 11.1476 2.63024 13.3484 4.1697 14.8007C5.70917 16.2491 7.53379 17.1208 9.64356 17.4162ZM9.49999 11.5177C9.74327 11.1092 10.0464 10.6864 10.4093 10.2494C10.7723 9.80847 11.1332 9.43427 11.4922 9.1268C11.4721 8.10327 11.2867 7.03524 10.9357 5.92271C10.5888 4.81018 10.1102 3.73406 9.49999 2.69434C8.88979 3.73406 8.40921 4.81018 8.05824 5.92271C7.71126 7.03524 7.52781 8.10327 7.50787 9.1268C7.86681 9.43427 8.22773 9.80847 8.59067 10.2494C8.95759 10.6864 9.26069 11.1092 9.49999 11.5177ZM11.175 17.0096C11.8889 16.7669 12.5988 16.4351 13.3047 16.0144C14.0147 15.5896 14.6608 15.0313 15.2431 14.3395C15.8293 13.6477 16.3179 12.8002 16.7087 11.7968C17.1036 10.7896 17.3409 9.59002 17.4206 8.19835C15.7935 8.44107 14.3556 9.00543 13.1074 9.89141C11.863 10.7773 10.9357 11.8838 10.3256 13.2108C10.5329 13.765 10.7045 14.3476 10.84 14.9585C10.9796 15.5653 11.0913 16.2491 11.175 17.0096Z" fill="#A6BABF"/>
</g>
</g>
<defs>
<filter id="filter0_d_748_79" x="-2" y="0" width="23" height="23" filterUnits="userSpaceOnUse" color-interpolation-filters="sRGB">
<feFlood flood-opacity="0" result="BackgroundImageFix"/>
<feColorMatrix in="SourceAlpha" type="matrix" values="0 0 0 0 0 0 0 0 0 0 0 0 0 0 0 0 0 0 127 0" result="hardAlpha"/>
<feOffset dy="2"/>
<feGaussianBlur stdDeviation="1"/>
<feComposite in2="hardAlpha" operator="out"/>
<feColorMatrix type="matrix" values="0 0 0 0 0 0 0 0 0 0 0 0 0 0 0 0 0 0 0.15 0"/>
<feBlend mode="normal" in2="BackgroundImageFix" result="effect1_dropShadow_748_79"/>
<feBlend mode="normal" in="SourceGraphic" in2="effect1_dropShadow_748_79" result="shape"/>
</filter>
<clipPath id="clip0_748_79">
<rect width="19" height="19" fill="white"/>
</clipPath>
</defs>
</svg>
