<svg width="38" height="46" viewBox="0 0 38 46" fill="none" xmlns="http://www.w3.org/2000/svg">
<g filter="url(#filter0_d_454_159)">
<path d="M9.83334 0.666748C6.81749 0.666748 4.33334 3.1509 4.33334 6.16675C4.33334 8.53754 5.87824 10.5578 8.00001 11.323V26.6772C5.87824 27.4423 4.33334 29.4626 4.33334 31.8334C4.33334 34.8493 6.81749 37.3334 9.83334 37.3334C12.8492 37.3334 15.3333 34.8493 15.3333 31.8334C15.3333 29.4626 13.7884 27.4423 11.6667 26.6772V19.6804C12.3864 20.5468 13.1775 21.3305 14.0085 22.0258C16.8247 24.3822 20.0567 25.8309 22.971 26.2188C23.7031 28.3995 25.7535 30.0001 28.1667 30.0001C31.1825 30.0001 33.6667 27.5159 33.6667 24.5001C33.6667 21.4842 31.1825 19.0001 28.1667 19.0001C25.8577 19.0001 23.8735 20.4624 23.0641 22.4985C21.0792 22.1076 18.4963 20.9986 16.3646 19.2149C14.0087 17.2437 12.1818 14.5908 11.7598 11.2944C13.8343 10.5042 15.3333 8.50348 15.3333 6.16675C15.3333 3.1509 12.8492 0.666748 9.83334 0.666748ZM9.83334 4.33341C10.8676 4.33341 11.6667 5.13251 11.6667 6.16675C11.6667 7.20099 10.8676 8.00008 9.83334 8.00008C8.79911 8.00008 8.00001 7.20099 8.00001 6.16675C8.00001 5.13251 8.79911 4.33341 9.83334 4.33341ZM28.1667 22.6667C29.2009 22.6667 30 23.4658 30 24.5001C30 25.5343 29.2009 26.3334 28.1667 26.3334C27.1324 26.3334 26.3333 25.5343 26.3333 24.5001C26.3333 23.4658 27.1324 22.6667 28.1667 22.6667ZM9.83334 30.0001C10.8676 30.0001 11.6667 30.7992 11.6667 31.8334C11.6667 32.8677 10.8676 33.6667 9.83334 33.6667C8.79911 33.6667 8.00001 32.8677 8.00001 31.8334C8.00001 30.7992 8.79911 30.0001 9.83334 30.0001Z" fill="white"/>
</g>
<defs>
<filter id="filter0_d_454_159" x="0.333344" y="0.666748" width="37.3333" height="44.6667" filterUnits="userSpaceOnUse" color-interpolation-filters="sRGB">
<feFlood flood-opacity="0" result="BackgroundImageFix"/>
<feColorMatrix in="SourceAlpha" type="matrix" values="0 0 0 0 0 0 0 0 0 0 0 0 0 0 0 0 0 0 127 0" result="hardAlpha"/>
<feOffset dy="4"/>
<feGaussianBlur stdDeviation="2"/>
<feComposite in2="hardAlpha" operator="out"/>
<feColorMatrix type="matrix" values="0 0 0 0 0 0 0 0 0 0 0 0 0 0 0 0 0 0 0.15 0"/>
<feBlend mode="normal" in2="BackgroundImageFix" result="effect1_dropShadow_454_159"/>
<feBlend mode="normal" in="SourceGraphic" in2="effect1_dropShadow_454_159" result="shape"/>
</filter>
</defs>
</svg>
