<svg width="19" height="18" viewBox="0 0 19 18" fill="none" xmlns="http://www.w3.org/2000/svg">
<path d="M3.40944 18C2.77782 18 2.15479 17.8648 1.54037 17.5944C0.925941 17.3197 0.412484 16.9563 0 16.5043C0.421077 16.3859 0.818523 16.1346 1.19233 15.75C1.57044 15.3655 1.7595 14.8543 1.7595 14.2162C1.7595 13.46 2.0259 12.8198 2.55869 12.2959C3.09148 11.772 3.74028 11.51 4.50509 11.51C5.27421 11.51 5.92516 11.772 6.45795 12.2959C6.99075 12.8198 7.25714 13.46 7.25714 14.2162C7.25714 15.2557 6.87903 16.1472 6.12281 16.8909C5.37088 17.6303 4.46643 18 3.40944 18ZM3.40944 16.3775C4.01527 16.3775 4.53302 16.1663 4.9627 15.7437C5.39236 15.3169 5.60721 14.8078 5.60721 14.2162C5.60721 13.9079 5.50193 13.6501 5.2914 13.4431C5.08086 13.236 4.81876 13.1325 4.50509 13.1325C4.19573 13.1325 3.93578 13.236 3.72525 13.4431C3.5147 13.6501 3.40944 13.9079 3.40944 14.2162C3.40944 14.6303 3.35787 15.0085 3.25475 15.3507C3.15593 15.693 3.02274 16.0162 2.85516 16.3204C2.94969 16.3585 3.04206 16.3775 3.1323 16.3775H3.40944ZM9.24866 11.9853L6.79309 9.57697L16.2158 0.311033C16.4177 0.112447 16.6691 0.00892879 16.9698 0.000478328C17.2749 -0.00797213 17.5371 0.095546 17.7562 0.311033L18.665 1.211C18.8884 1.42649 19 1.67789 19 1.96521C19 2.25252 18.8884 2.50604 18.665 2.72575L9.24866 11.9853Z" fill="white"/>
</svg>
