<svg width="71" height="38" viewBox="0 0 71 38" fill="none" xmlns="http://www.w3.org/2000/svg">
<g filter="url(#filter0_d_751_202)">
<path d="M25.5833 0.625C21.422 0.625 17.875 3.70833 17.875 3.70833C24.1982 3.70833 23.1143 6.79167 25.5833 6.79167C27.2816 6.79167 28.6667 5.40658 28.6667 3.70833C28.6667 2.01009 27.2816 0.625 25.5833 0.625ZM19.5612 5.25C18.3267 5.25 17.4294 6.17741 12.9609 10.6458C11.2627 12.3441 11.4072 14.4819 13.1055 15.5599L17.875 18.3542V25.2917H20.9583V18.2096C20.9583 17.4027 20.5308 16.5295 20.043 16.0417L18.3086 14.3073L21.7292 11.2721L24.0417 13.7292C24.5054 14.3434 25.2943 14.6445 26.0651 14.6445H31.75V11.5612H26.9805V11.4167C26.5168 11.4167 26.2217 11.242 26.0651 10.9349C22.2109 6.15332 20.9704 5.25 20.043 5.25H19.5612ZM10.1667 17.5833C6.7762 17.5833 4 20.3595 4 23.75C4 27.1405 6.7762 29.9167 10.1667 29.9167C13.5571 29.9167 16.3333 27.1405 16.3333 23.75C16.3333 20.3595 13.5571 17.5833 10.1667 17.5833ZM28.6667 17.5833C25.2762 17.5833 22.5 20.3595 22.5 23.75C22.5 27.1405 25.2762 29.9167 28.6667 29.9167C32.0571 29.9167 34.8333 27.1405 34.8333 23.75C34.8333 20.3595 32.0571 17.5833 28.6667 17.5833ZM28.6667 20.0404C30.672 20.0404 32.3763 21.7446 32.3763 23.75C32.3763 25.7554 30.672 27.4596 28.6667 27.4596C26.6613 27.4596 24.957 25.7554 24.957 23.75C24.957 21.7446 26.6613 20.0404 28.6667 20.0404ZM10.1667 22.2083C11.0941 22.2083 11.7083 22.8226 11.7083 23.75C11.7083 24.6774 11.0941 25.2917 10.1667 25.2917C9.23926 25.2917 8.625 24.6774 8.625 23.75C8.625 22.8226 9.23926 22.2083 10.1667 22.2083Z" fill="white"/>
<path d="M60.4167 0C59.6211 0 58.858 0.31607 58.2954 0.87868C57.7328 1.44129 57.4167 2.20435 57.4167 3C57.4167 3.79565 57.7328 4.55871 58.2954 5.12132C58.858 5.68393 59.6211 6 60.4167 6C61.2124 6 61.9755 5.68393 62.5381 5.12132C63.1007 4.55871 63.4167 3.79565 63.4167 3C63.4167 2.20435 63.1007 1.44129 62.5381 0.87868C61.9755 0.31607 61.2124 0 60.4167 0ZM50.8894 4.3916L44.5408 7.66699L45.9177 10.333L51.1941 7.6084L53.0222 8.14746L50.3181 13.5059C50.056 13.9602 49.9176 14.4754 49.9167 15C49.9175 15.4444 50.017 15.8831 50.208 16.2844C50.399 16.6857 50.6768 17.0395 51.0212 17.3203C51.0261 17.3242 51.031 17.3281 51.0359 17.332L55.6882 21.668L55.7029 21.6826L53.0105 28.9541L55.823 29.9971L59.1306 21.0674L59.1218 21.0557L55.8669 15.8027L57.8474 11.8447L59.9978 15H66.4167V12H61.5857L58.5125 7.49414L58.5037 7.48828C58.2986 7.13728 58.0242 6.83164 57.6974 6.5899C57.3705 6.34816 56.998 6.17537 56.6023 6.08203L56.5935 6.07617L50.8894 4.3916ZM49.0789 18.5977L48.2322 19.5H40.9167V22.5H49.533L51.2673 20.6514L49.0789 18.5977Z" fill="white"/>
</g>
<defs>
<filter id="filter0_d_751_202" x="0" y="0" width="70.4167" height="37.9971" filterUnits="userSpaceOnUse" color-interpolation-filters="sRGB">
<feFlood flood-opacity="0" result="BackgroundImageFix"/>
<feColorMatrix in="SourceAlpha" type="matrix" values="0 0 0 0 0 0 0 0 0 0 0 0 0 0 0 0 0 0 127 0" result="hardAlpha"/>
<feOffset dy="4"/>
<feGaussianBlur stdDeviation="2"/>
<feComposite in2="hardAlpha" operator="out"/>
<feColorMatrix type="matrix" values="0 0 0 0 0 0 0 0 0 0 0 0 0 0 0 0 0 0 0.15 0"/>
<feBlend mode="normal" in2="BackgroundImageFix" result="effect1_dropShadow_751_202"/>
<feBlend mode="normal" in="SourceGraphic" in2="effect1_dropShadow_751_202" result="shape"/>
</filter>
</defs>
</svg>
