<svg width="38" height="38" viewBox="0 0 38 38" fill="none" xmlns="http://www.w3.org/2000/svg">
<g clip-path="url(#clip0_751_127)">
<g filter="url(#filter0_d_751_127)">
<path d="M19.0001 3.16663C18.6264 3.16663 18.2482 3.17991 17.8682 3.20683C9.49558 3.78791 3.16675 11.0922 3.16675 19.4855V20.5833C3.16675 22.3329 4.58383 23.75 6.33341 23.75H11.0834C12.833 23.75 14.2501 25.167 14.2501 26.9166V31.6666C14.2501 33.4162 15.6672 34.8333 17.4167 34.8333H18.5146C19.4314 34.8333 20.3239 34.7233 21.205 34.5704C22.9508 36.6633 25.5758 38 28.5001 38C33.728 38 38.0001 33.7279 38.0001 28.5C38.0001 25.6149 36.6957 23.0246 34.651 21.2791C34.7131 20.9006 34.7693 20.5191 34.7963 20.1287C35.4376 10.8725 28.1185 3.16663 19.0001 3.16663ZM18.2084 7.91663C19.521 7.91663 20.5834 8.98063 20.5834 10.2916C20.5834 11.6026 19.521 12.6666 18.2084 12.6666C16.8974 12.6666 15.8334 11.6026 15.8334 10.2916C15.8334 8.98063 16.8974 7.91663 18.2084 7.91663ZM24.5417 9.49996C25.8543 9.49996 26.9167 10.564 26.9167 11.875C26.9167 13.186 25.8543 14.25 24.5417 14.25C23.2307 14.25 22.1667 13.186 22.1667 11.875C22.1667 10.564 23.2307 9.49996 24.5417 9.49996ZM11.8751 11.0833C13.1877 11.0833 14.2501 12.1473 14.2501 13.4583C14.2501 14.7693 13.1877 15.8333 11.8751 15.8333C10.5641 15.8333 9.50008 14.7693 9.50008 13.4583C9.50008 12.1473 10.5641 11.0833 11.8751 11.0833ZM27.7084 15.8333C29.0194 15.8333 30.0834 16.8973 30.0834 18.2083C30.0834 18.5302 30.0201 18.8374 29.9041 19.1175C29.4443 19.0485 28.9784 19 28.5001 19C27.5198 19 26.574 19.1513 25.6829 19.4298C25.466 19.0715 25.3334 18.6574 25.3334 18.2083C25.3334 16.8973 26.3974 15.8333 27.7084 15.8333ZM28.5001 22.1666C32.0166 22.1666 34.8334 24.9834 34.8334 28.5C34.8334 32.0165 32.0166 34.8333 28.5001 34.8333C24.9835 34.8333 22.1667 32.0165 22.1667 28.5C22.1667 24.9834 24.9835 22.1666 28.5001 22.1666ZM29.2763 24.6993L25.6674 26.1744V28.1474L27.1765 27.5629V32.3006H29.7618V24.6993H29.2763Z" fill="white"/>
</g>
</g>
<defs>
<filter id="filter0_d_751_127" x="-0.833252" y="3.16663" width="42.8333" height="42.8334" filterUnits="userSpaceOnUse" color-interpolation-filters="sRGB">
<feFlood flood-opacity="0" result="BackgroundImageFix"/>
<feColorMatrix in="SourceAlpha" type="matrix" values="0 0 0 0 0 0 0 0 0 0 0 0 0 0 0 0 0 0 127 0" result="hardAlpha"/>
<feOffset dy="4"/>
<feGaussianBlur stdDeviation="2"/>
<feComposite in2="hardAlpha" operator="out"/>
<feColorMatrix type="matrix" values="0 0 0 0 0 0 0 0 0 0 0 0 0 0 0 0 0 0 0.15 0"/>
<feBlend mode="normal" in2="BackgroundImageFix" result="effect1_dropShadow_751_127"/>
<feBlend mode="normal" in="SourceGraphic" in2="effect1_dropShadow_751_127" result="shape"/>
</filter>
<clipPath id="clip0_751_127">
<rect width="38" height="38" fill="white"/>
</clipPath>
</defs>
</svg>
