<svg width="46" height="58" viewBox="0 0 46 58" fill="none" xmlns="http://www.w3.org/2000/svg">
<g filter="url(#filter0_d_138_165)">
<path d="M12.4104 0C7.83323 0 4.12645 3.76066 4.12645 8.40438C4.12645 12.401 6.86526 15.7125 10.5495 16.5652C10.2119 15.4004 9.89671 14.2661 9.6491 13.1547C8.04333 12.1955 6.9478 10.4294 6.9478 8.40438C6.9478 5.35932 9.40898 2.86236 12.4104 2.86236C15.4119 2.86236 17.873 5.35932 17.873 8.40438C17.873 8.82308 17.783 9.23417 17.6929 9.62241C18.2107 10.7871 18.6459 12.0661 19.0136 13.3983C20.0491 11.9976 20.6944 10.2923 20.6944 8.40438C20.6944 3.76066 16.9876 0 12.4104 0ZM13.4309 7.67357C13.1683 7.63551 12.8831 7.65073 12.5905 7.73447C10.4445 8.37393 10.9172 10.9546 12.5305 16.5043C13.7386 20.6532 15.0742 25 15.772 27.4056C16.6424 30.4354 17.0626 31.4632 17.3328 33.8002C17.5054 35.2467 14.8641 35.9775 12.2303 35.5664C9.16136 35.0944 6.88777 34.2418 4.8468 36.4799C3.5937 37.8578 3.42862 40.3167 6.46757 40.2558C14.5564 40.0883 16.695 43.5368 19.794 45.3106C22.8704 47.0615 26.3521 47.2594 27.4776 50L41.3443 44.6407C40.2788 40.9866 43.7904 38.9921 40.6839 28.1973C38.2078 19.6102 33.8482 17.6157 32.7001 17.9659C31.5521 18.3009 31.5971 19.1382 30.8392 19.3666C30.0739 19.595 29.0984 17.296 27.2375 17.8441C25.3841 18.3922 25.6092 20.2649 24.9564 20.4629C24.3036 20.6456 23.8609 18.8033 21.5348 19.4884C19.6739 20.0442 20.6869 22.2671 19.974 22.4726C19.5688 22.5944 18.826 20.3106 17.4528 15.0426C16.4023 10.9927 15.2543 7.91717 13.4309 7.67357Z" fill="white"/>
</g>
<defs>
<filter id="filter0_d_138_165" x="0" y="0" width="46" height="58" filterUnits="userSpaceOnUse" color-interpolation-filters="sRGB">
<feFlood flood-opacity="0" result="BackgroundImageFix"/>
<feColorMatrix in="SourceAlpha" type="matrix" values="0 0 0 0 0 0 0 0 0 0 0 0 0 0 0 0 0 0 127 0" result="hardAlpha"/>
<feOffset dy="4"/>
<feGaussianBlur stdDeviation="2"/>
<feComposite in2="hardAlpha" operator="out"/>
<feColorMatrix type="matrix" values="0 0 0 0 0 0 0 0 0 0 0 0 0 0 0 0 0 0 0.15 0"/>
<feBlend mode="normal" in2="BackgroundImageFix" result="effect1_dropShadow_138_165"/>
<feBlend mode="normal" in="SourceGraphic" in2="effect1_dropShadow_138_165" result="shape"/>
</filter>
</defs>
</svg>
