<svg width="22" height="18" viewBox="0 0 22 18" fill="none" xmlns="http://www.w3.org/2000/svg">
<path d="M6.96667 0.200012C4.4088 0.200012 2.93333 2.19541 2.93333 4.60001C2.93333 5.40961 3.32005 6.22423 3.32005 6.22423C3.16459 6.3137 2.9089 6.59769 2.97344 7.10223C3.0937 8.04309 3.5016 8.28125 3.7612 8.30105C3.8602 9.17959 4.80333 10.3031 5.13333 10.4667V11.9333C4.4 14.1333 0 12.6667 0 17.8H6.6C6.6 14.7376 7.96664 13.3921 9.3013 12.6609C9.07984 12.4696 8.90193 12.2391 8.8 11.9333V10.4667C9.08087 10.3281 9.79981 9.49609 10.0719 8.71069C9.84161 8.34549 9.66116 7.88466 9.5849 7.28699C9.52183 6.79052 9.59638 6.35939 9.74818 6.00079C9.63451 5.60553 9.53333 5.11041 9.53333 4.60001C9.53333 3.58361 9.74367 2.65242 10.1191 1.84428C9.78034 1.50402 9.34487 1.30001 8.8 1.30001C8.8 1.30001 8.52573 0.200012 6.96667 0.200012ZM15.0333 0.201444C12.4755 0.200711 11 2.19541 11 4.60001C11 5.40961 11.3867 6.22423 11.3867 6.22423C11.2313 6.3137 10.9756 6.59769 11.0401 7.10223C11.1604 8.04309 11.5683 8.28125 11.8279 8.30105C11.9269 9.17959 12.87 10.3031 13.2 10.4667V11.9333C12.4667 14.1333 8.06667 12.6667 8.06667 17.8H22C22 12.6667 17.6 14.1333 16.8667 11.9333V10.4667C17.1967 10.3031 18.1398 9.18029 18.2388 8.30249C18.4984 8.28269 18.9063 8.04309 19.0266 7.10223C19.0911 6.59696 18.8354 6.3137 18.6799 6.22423C18.6799 6.22423 19.0667 5.48951 19.0667 4.60144C19.0667 2.82091 18.3678 1.30144 16.8667 1.30144C16.8667 1.30144 16.5924 0.201444 15.0333 0.201444Z" fill="#A6BABF"/>
</svg>
