<svg width="48" height="46" viewBox="0 0 48 46" fill="none" xmlns="http://www.w3.org/2000/svg">
<g filter="url(#filter0_d_751_131)">
<path d="M5.36364 0C4.60909 0 4 0.606191 4 1.35714V31.7303C4 35.1865 6.85455 38 10.3636 38C13.8727 38 16.7273 35.1865 16.7273 31.7303V1.35714C16.7273 0.606191 16.1182 0 15.3636 0H5.36364ZM29.6463 4.08026C29.2918 4.08026 28.9367 4.22453 28.6822 4.47786L21.9368 11.1911L30.9371 20.1486L37.6825 13.4354C38.2189 12.9016 38.2189 12.0428 37.6825 11.518L30.6087 4.47786C30.3541 4.22453 30.0099 4.08026 29.6463 4.08026ZM20.0085 13.1102L18.5455 14.5663C18.5455 14.5663 18.5357 32.2631 18.4993 32.5255L19.4545 31.5765L22.1818 28.8623L22.2546 28.7898L29.0089 22.0677L20.0085 13.1102ZM28.2915 25.3333C28.2915 25.3333 16.9643 36.5524 16.4734 37.0952C16.4279 37.1405 16.3821 37.1949 16.3366 37.2401C16.2366 37.3487 16.1281 37.4567 16.0099 37.5653C16.0009 37.5834 15.982 37.5931 15.9638 37.6112C15.8183 37.747 15.6727 37.8733 15.5181 38H30.3636V25.3333H28.2915ZM33.0909 25.3333V38H42.6364C43.3909 38 44 37.3938 44 36.6429V26.6905C44 25.9395 43.3909 25.3333 42.6364 25.3333H33.0909ZM10.3636 29.8571C11.3636 29.8571 12.1818 30.6714 12.1818 31.6667C12.1818 32.6619 11.3636 33.4762 10.3636 33.4762C9.36364 33.4762 8.54545 32.6619 8.54545 31.6667C8.54545 30.6714 9.36364 29.8571 10.3636 29.8571Z" fill="white"/>
</g>
<defs>
<filter id="filter0_d_751_131" x="0" y="0" width="48" height="46" filterUnits="userSpaceOnUse" color-interpolation-filters="sRGB">
<feFlood flood-opacity="0" result="BackgroundImageFix"/>
<feColorMatrix in="SourceAlpha" type="matrix" values="0 0 0 0 0 0 0 0 0 0 0 0 0 0 0 0 0 0 127 0" result="hardAlpha"/>
<feOffset dy="4"/>
<feGaussianBlur stdDeviation="2"/>
<feComposite in2="hardAlpha" operator="out"/>
<feColorMatrix type="matrix" values="0 0 0 0 0 0 0 0 0 0 0 0 0 0 0 0 0 0 0.15 0"/>
<feBlend mode="normal" in2="BackgroundImageFix" result="effect1_dropShadow_751_131"/>
<feBlend mode="normal" in="SourceGraphic" in2="effect1_dropShadow_751_131" result="shape"/>
</filter>
</defs>
</svg>
