<svg width="44" height="52" viewBox="0 0 44 52" fill="none" xmlns="http://www.w3.org/2000/svg">
<g filter="url(#filter0_d_454_155)">
<path d="M38.2 0L14.8 8.49129C13.8086 8.82836 13 9.94715 13 10.9584V32.6456C12.1844 32.5093 11.2633 32.5237 10.3 32.7603C6.81953 33.6281 4 36.8339 4 39.8747C4 42.9155 6.81953 44.6438 10.3 43.7761C13.7383 42.9226 16.5297 39.8388 16.6 36.8339C16.6 36.798 16.6 36.755 16.6 36.7191V15.204L36.4 7.97493V27.1377C35.5844 27.0015 34.6633 27.0158 33.7 27.2525C30.2195 28.1202 27.4 31.326 27.4 34.3668C27.4 37.4076 30.2195 39.136 33.7 38.2682C37.1805 37.4004 40 34.252 40 31.2112V1.83596C40 0.824746 39.1914 0 38.2 0Z" fill="white"/>
</g>
<defs>
<filter id="filter0_d_454_155" x="0" y="0" width="44" height="52" filterUnits="userSpaceOnUse" color-interpolation-filters="sRGB">
<feFlood flood-opacity="0" result="BackgroundImageFix"/>
<feColorMatrix in="SourceAlpha" type="matrix" values="0 0 0 0 0 0 0 0 0 0 0 0 0 0 0 0 0 0 127 0" result="hardAlpha"/>
<feOffset dy="4"/>
<feGaussianBlur stdDeviation="2"/>
<feComposite in2="hardAlpha" operator="out"/>
<feColorMatrix type="matrix" values="0 0 0 0 0 0 0 0 0 0 0 0 0 0 0 0 0 0 0.15 0"/>
<feBlend mode="normal" in2="BackgroundImageFix" result="effect1_dropShadow_454_155"/>
<feBlend mode="normal" in="SourceGraphic" in2="effect1_dropShadow_454_155" result="shape"/>
</filter>
</defs>
</svg>
