<svg width="46" height="30" viewBox="0 0 46 30" fill="none" xmlns="http://www.w3.org/2000/svg">
<g filter="url(#filter0_d_454_164)">
<path d="M23 0C15.5606 0 8.60746 3.71512 4.42748 9.90698C3.64591 11.0698 3.97011 12.6105 5.12221 13.3953C5.55642 13.6919 6.02537 13.8605 6.51168 13.8605C7.3222 13.8605 8.15588 13.4651 8.64219 12.7442C8.79851 12.5116 8.98956 12.314 9.15166 12.093C11.1374 17.8663 16.5737 22 23 22C29.4263 22 34.8626 17.8663 36.8483 12.093C37.0104 12.314 37.2015 12.5116 37.3578 12.7442C38.1336 13.9012 39.7199 14.1802 40.8778 13.3953C42.0299 12.6105 42.3541 11.064 41.5725 9.90698C37.3983 3.7093 30.4394 0 23 0ZM23 5.39535C25.6226 5.39535 27.7705 7.54651 27.7705 10.186C27.7705 12.8256 25.6226 14.9767 23 14.9767C20.3774 14.9767 18.2295 12.8198 18.2295 10.186C18.2295 7.55233 20.3774 5.39535 23 5.39535ZM28.8821 6.09302C31.3542 6.98256 33.5599 8.4593 35.4126 10.3721C34.0289 15.9651 28.9921 20.1395 23 20.1395C17.0079 20.1395 11.9711 15.9651 10.5874 10.3721C12.4285 8.47093 14.6632 7.03488 17.1179 6.13953C16.3248 7.2907 15.8674 8.68023 15.8674 10.186C15.8674 14.1453 19.0632 17.3488 23 17.3488C26.9368 17.3488 30.1326 14.1453 30.1326 10.186C30.1326 8.6686 29.6868 7.25 28.8821 6.09302Z" fill="white"/>
</g>
<defs>
<filter id="filter0_d_454_164" x="0" y="0" width="46" height="30" filterUnits="userSpaceOnUse" color-interpolation-filters="sRGB">
<feFlood flood-opacity="0" result="BackgroundImageFix"/>
<feColorMatrix in="SourceAlpha" type="matrix" values="0 0 0 0 0 0 0 0 0 0 0 0 0 0 0 0 0 0 127 0" result="hardAlpha"/>
<feOffset dy="4"/>
<feGaussianBlur stdDeviation="2"/>
<feComposite in2="hardAlpha" operator="out"/>
<feColorMatrix type="matrix" values="0 0 0 0 0 0 0 0 0 0 0 0 0 0 0 0 0 0 0.15 0"/>
<feBlend mode="normal" in2="BackgroundImageFix" result="effect1_dropShadow_454_164"/>
<feBlend mode="normal" in="SourceGraphic" in2="effect1_dropShadow_454_164" result="shape"/>
</filter>
</defs>
</svg>
